<?xml version="1.0" encoding="utf-8"?>
<!-- Generator: Adobe Illustrator 24.1.0, SVG Export Plug-In . SVG Version: 6.00 Build 0)  -->
<svg version="1.1" id="Layer_1" xmlns="http://www.w3.org/2000/svg" xmlns:xlink="http://www.w3.org/1999/xlink" x="0px" y="0px"
	 viewBox="0 0 290.9953308 79.2388" style="enable-background:new 0 0 290.9953308 79.2388;" xml:space="preserve">
<g>
	<g>
		<path d="M84.6901474,11.3747387c0-3.4931641,2.8857422-6.2275391,6.328125-6.2275391
			c3.5449219,0,6.3798828,2.734375,6.3798828,6.2275391s-2.8349609,6.2773438-6.3798828,6.2773438
			C87.5758896,17.6520824,84.6901474,14.8679028,84.6901474,11.3747387z M85.550499,25.3991528h10.9863281v53.0078125H85.550499
			V25.3991528z"/>
		<path d="M182.4972687,78.4069672h-10.3789063V24.6393871h-0.3544922l-22.0234375,53.2109375h-8.4038086L119.262413,24.6393871
			h-0.3544922v53.7675781h-10.328125V5.3493481h13.1132813l23.6435471,57.6660156h0.4052734l23.5922852-57.6660156h13.1630859
			V78.4069672z"/>
		<path d="M189.8947296,63.269268c0-9.3662109,7.1386719-14.7333984,20.3017578-15.5429688l14.125-0.8613281v-4.0498047
			c0-5.9238281-3.8984375-9.1640625-10.8339844-9.1640625c-5.7216797,0-9.8730469,2.9365234-10.7333984,7.4423828h-10.2275391
			c0.3046875-9.4677715,9.2148438-16.3525372,21.2646484-16.3525372c12.9609375,0,21.4160156,6.7841797,21.4160156,17.3144512
			v36.3515663h-10.4804688v-8.7587891h-0.2529297c-2.9873047,5.7207031-9.5693359,9.3154297-16.7080078,9.3154297
			C197.2355499,78.9636078,189.8947296,72.686264,189.8947296,63.269268z M224.3214874,58.5602837v-4.1005859l-12.6064453,0.8095703
			c-7.0878906,0.4560547-10.7832031,3.0888672-10.7832031,7.6962891c0,4.4550819,3.8476563,7.3408241,9.8720703,7.3408241
			C218.4992218,70.3063812,224.3214874,65.3952484,224.3214874,58.5602837z"/>
		<path d="M280.4650574,43.675518c-0.9619141-5.6191406-5.3164063-9.8222656-12.4550781-9.8222656
			c-8.3535156,0-13.9228668,7.0380859-13.9228668,18.0244141c0,11.3408203,5.6201324,18.0742226,13.9736481,18.0742226
			c6.7333984,0,11.1894531-3.3417969,12.4550781-9.5185585h10.4794922
			c-1.1640625,11.2402382-10.125,18.6318398-22.9853516,18.6318398c-15.1377106,0-25.0605621-10.328125-25.0605621-27.1875038
			c0-16.4541016,9.9228516-27.1367168,24.9599762-27.1367168c13.6191406,0,22.0742188,8.5556622,22.9853516,18.9345684H280.4650574z
			"/>
	</g>
	<g>
		<path d="M43.8731995,12.698801C46.6062355,9.2803688,48.4608574,4.690392,47.9717178,0
			c-4.0007858,0.1989383-8.8829803,2.6394551-11.7095375,6.0605707c-2.537941,2.929657-4.7842178,7.7118015-4.1986275,12.2055731
			C36.5546379,18.6557236,41.0415764,16.0213318,43.8731995,12.698801"/>
		<path d="M47.9206848,19.1435719c-6.5221481-0.388504-12.0675583,3.7016258-15.1822281,3.7016258
			c-3.1163731,0-7.885931-3.5058517-13.0446014-3.4113731c-6.7143316,0.0986176-12.9444599,3.8949661-16.3516979,9.9329128
			C-3.6659558,41.44561,1.4927144,59.3628273,8.3077316,69.2004089c3.3095312,4.8669586,7.2980633,10.2258377,12.5535851,10.0333557
			c4.9655743-0.1948624,6.911871-3.2153015,12.9477501-3.2153015c6.0314369,0,7.7846336,3.2153015,13.0410118,3.117897
			c5.4509926-0.0974579,8.8588333-4.8693924,12.1683006-9.7410889c3.7966537-5.5480919,5.350853-10.9052124,5.4486237-11.1992989
			c-0.0977707-0.0973969-10.5110474-4.0921974-10.6075974-16.0706902
			c-0.0983124-10.0297661,8.1755791-14.800478,8.5649948-15.0963268
			C57.7520638,20.1185455,50.4516258,19.3393459,47.9206848,19.1435719"/>
	</g>
</g>
</svg>
